<?xml version="1.0" encoding="utf-8"?>
<!-- Generator: Adobe Illustrator 23.0.3, SVG Export Plug-In . SVG Version: 6.00 Build 0)  -->
<svg version="1.1" id="Layer_1" xmlns="http://www.w3.org/2000/svg" xmlns:xlink="http://www.w3.org/1999/xlink" x="0px" y="0px"
	 viewBox="0 0 1280 890" style="enable-background:new 0 0 1280 890;" xml:space="preserve">
<style type="text/css">
	.st0{fill:#651FFF;}
	.st1{fill:#F44720;}
</style>
<g>
	<path class="st0" d="M88,330.78c0-81.64,63.59-142.09,150.34-142.09c86.35,0,150.34,60.05,150.34,142.09
		c0,82.04-63.98,142.09-150.34,142.09C151.59,472.88,88,412.43,88,330.78z M324.3,330.78c0-52.21-36.9-87.92-85.96-87.92
		c-49.07,0-85.96,35.72-85.96,87.92c0,52.2,36.89,87.92,85.96,87.92C287.4,418.71,324.3,382.99,324.3,330.78z"/>
	<path class="st0" d="M1061.78,188.11v283.62h-53.89l-141.4-172.2v172.2h-64.83V188.11h54.29l141,172.2v-172.2H1061.78z"/>
	<path class="st0" d="M1115.77,188.11h65.64v283.62h-65.64V188.11z"/>
	<path class="st1" d="M886.72,684.38v113.1c0,4.91-3.98,8.89-8.89,8.89h-20.62c-4.91,0-8.89-3.98-8.89-8.89v-108.7
		c0-41.59-20.8-61.99-57.2-61.99c-40.79,0-67.19,24.4-67.19,70.39v100.3c0,4.91-3.98,8.89-8.89,8.89h-20.62
		c-4.91,0-8.89-3.98-8.89-8.89v-194.2c0-4.91,3.98-8.89,8.89-8.89h19.02c4.91,0,8.89,3.98,8.89,8.89v23.11
		c15.6-21.6,42.79-33.99,76.39-33.99C850.32,592.4,886.72,621.99,886.72,684.38z"/>
	<path class="st1" d="M1008.53,707.58l-43.99,40.8v49.1c0,4.91-3.98,8.89-8.89,8.89h-20.62c-4.91,0-8.89-3.98-8.89-8.89V518.49
		c0-4.91,3.98-8.89,8.89-8.89h20.62c4.91,0,8.89,3.98,8.89,8.89v181.49l113.04-103.26c1.64-1.5,3.78-2.33,5.99-2.33h21.21
		c7.96,0,11.91,9.65,6.23,15.23l-73.68,72.36l86.65,110c4.59,5.83,0.44,14.39-6.98,14.39h-24.62c-2.69,0-5.23-1.22-6.92-3.31
		L1008.53,707.58z"/>
	<circle class="st1" cx="1150.05" cy="123.18" r="41.95"/>
	<path class="st0" d="M686.09,471.73l-0.4-170.17l-83.46,140.19h-29.58l-83.06-136.54v166.52h-61.59V188.11h54.29l106.16,176.25
		l104.53-176.25h53.89l0.81,283.62H686.09z"/>
	<path class="st1" d="M648.59,700.38c0,64.79-45.2,108.39-107.19,108.39c-31.2,0-58.39-12-75.59-36v24.71
		c0,4.91-3.98,8.89-8.89,8.89h-19.02c-4.91,0-8.89-3.98-8.89-8.89V518.49c0-4.91,3.98-8.89,8.89-8.89h20.62
		c4.91,0,8.89,3.98,8.89,8.89v107.9c17.6-22.8,43.99-33.99,73.99-33.99C603.4,592.4,648.59,635.59,648.59,700.38z M609.8,700.38
		c0-45.19-30.8-74.39-71.59-74.39c-40.4,0-71.19,29.2-71.19,74.39c0,45.19,30.8,74.79,71.19,74.79
		C579,775.17,609.8,745.58,609.8,700.38z"/>
</g>
</svg>
